<svg width="290" height="30" viewBox="0 0 290 30" fill="none" xmlns="http://www.w3.org/2000/svg">
<path d="M35 15.0101C35 6.71824 27.1673 0 17.5 0C7.83266 0 0 6.71824 0 15.0101C0 22.5019 6.3995 28.7117 14.7656 29.8387V19.3491H10.3201V15.0101H14.7656V11.7031C14.7656 7.94144 17.3765 5.86363 21.3754 5.86363C23.2905 5.86363 25.2931 6.15657 25.2931 6.15657V9.84858H23.0859C20.9125 9.84858 20.2344 11.0058 20.2344 12.1927V15.0101H25.0878L24.3116 19.3491H20.2344V29.8387C28.6005 28.7117 35 22.5019 35 15.0101Z" fill="white"/>
<path d="M102.504 7.26908C97.5379 7.26908 93.5323 10.6847 93.5323 14.9193C93.5323 19.1539 97.5379 22.5696 102.504 22.5696C107.47 22.5696 111.475 19.1539 111.475 14.9193C111.475 10.6847 107.47 7.26908 102.504 7.26908ZM102.504 19.893C99.2948 19.893 96.6712 17.6625 96.6712 14.9193C96.6712 12.1762 99.2869 9.94567 102.504 9.94567C105.721 9.94567 108.337 12.1762 108.337 14.9193C108.337 17.6625 105.713 19.893 102.504 19.893ZM113.935 6.95614C113.935 7.94821 112.998 8.74054 111.842 8.74054C110.679 8.74054 109.75 7.94155 109.75 6.95614C109.75 5.97073 110.687 5.17175 111.842 5.17175C112.998 5.17175 113.935 5.97073 113.935 6.95614ZM119.877 8.76717C119.744 6.37688 119.104 4.25958 117.05 2.51513C115.005 0.770685 112.522 0.224714 109.719 0.104866C106.83 -0.0349555 98.1704 -0.0349555 95.2814 0.104866C92.4861 0.218056 90.0031 0.764027 87.9495 2.50847C85.896 4.25292 85.2635 6.37022 85.123 8.76051C84.959 11.224 84.959 18.608 85.123 21.0715C85.2557 23.4618 85.896 25.5791 87.9495 27.3235C90.0031 29.068 92.4782 29.614 95.2814 29.7338C98.1704 29.8736 106.83 29.8736 109.719 29.7338C112.522 29.6206 115.005 29.0746 117.05 27.3235C119.096 25.5791 119.736 23.4618 119.877 21.0715C120.041 18.608 120.041 11.2307 119.877 8.76717ZM116.145 23.7148C115.536 25.0198 114.357 26.0252 112.818 26.5512C110.515 27.3302 105.049 27.1504 102.504 27.1504C99.9584 27.1504 94.4849 27.3235 92.1893 26.5512C90.659 26.0319 89.4799 25.0265 88.8631 23.7148C87.9495 21.7506 88.1603 17.0899 88.1603 14.9193C88.1603 12.7488 87.9573 8.08138 88.8631 6.12387C89.4721 4.81886 90.6511 3.81348 92.1893 3.28748C94.4927 2.50847 99.9584 2.68824 102.504 2.68824C105.049 2.68824 110.523 2.51513 112.818 3.28748C114.349 3.80682 115.528 4.81221 116.145 6.12387C117.058 8.08803 116.847 12.7488 116.847 14.9193C116.847 17.0899 117.058 21.7573 116.145 23.7148Z" fill="white"/>
<path d="M204.269 4.66874C203.866 2.83102 202.68 1.38369 201.174 0.892518C198.445 0 187.5 0 187.5 0C187.5 0 176.555 0 173.826 0.892518C172.32 1.38377 171.134 2.83102 170.731 4.66874C170 7.99972 170 14.9495 170 14.9495C170 14.9495 170 21.8993 170.731 25.2302C171.134 27.0679 172.32 28.455 173.826 28.9461C176.555 29.8387 187.5 29.8387 187.5 29.8387C187.5 29.8387 198.445 29.8387 201.174 28.9461C202.68 28.455 203.866 27.0679 204.269 25.2302C205 21.8993 205 14.9495 205 14.9495C205 14.9495 205 7.99972 204.269 4.66874ZM183.92 21.2594V8.63962L193.068 14.9496L183.92 21.2594Z" fill="white"/>
<path d="M287.5 0H257.492C256.117 0 255 0.965761 255 2.15131V27.6874C255 28.8729 256.117 29.8387 257.492 29.8387H287.5C288.875 29.8387 290 28.8729 290 27.6874V2.15131C290 0.965761 288.875 0 287.5 0ZM265.578 25.576H260.391V11.336H265.586V25.576H265.578ZM262.984 9.39119C261.32 9.39119 259.977 8.23894 259.977 6.82693C259.977 5.41492 261.32 4.26267 262.984 4.26267C264.641 4.26267 265.992 5.41492 265.992 6.82693C265.992 8.2456 264.648 9.39119 262.984 9.39119ZM285.023 25.576H279.836V18.6492C279.836 16.9974 279.797 14.8727 277.141 14.8727C274.438 14.8727 274.023 16.671 274.023 18.5293V25.576H268.836V11.336H273.812V13.2809H273.883C274.578 12.1619 276.273 10.983 278.797 10.983C284.047 10.983 285.023 13.9336 285.023 17.77V25.576Z" fill="white"/>
</svg>
