<svg width="12" height="9" viewBox="0 0 12 9" fill="none" xmlns="http://www.w3.org/2000/svg">
<path d="M2.70833 8.83333C2.25694 8.83333 1.87326 8.67535 1.55729 8.35938C1.24132 8.0434 1.08333 7.65972 1.08333 7.20833H0V1.25C0 0.952083 0.106076 0.697048 0.318229 0.484895C0.530382 0.272742 0.785417 0.166666 1.08333 0.166666H8.66667V2.33333H10.2917L11.9167 4.5V7.20833H10.8333C10.8333 7.65972 10.6753 8.0434 10.3594 8.35938C10.0434 8.67535 9.65972 8.83333 9.20833 8.83333C8.75694 8.83333 8.37326 8.67535 8.05729 8.35938C7.74132 8.0434 7.58333 7.65972 7.58333 7.20833H4.33333C4.33333 7.65972 4.17535 8.0434 3.85938 8.35938C3.5434 8.67535 3.15972 8.83333 2.70833 8.83333ZM2.70833 7.75C2.86181 7.75 2.99045 7.69809 3.09427 7.59427C3.19809 7.49045 3.25 7.3618 3.25 7.20833C3.25 7.05486 3.19809 6.92622 3.09427 6.8224C2.99045 6.71858 2.86181 6.66667 2.70833 6.66667C2.55486 6.66667 2.42622 6.71858 2.3224 6.8224C2.21858 6.92622 2.16667 7.05486 2.16667 7.20833C2.16667 7.3618 2.21858 7.49045 2.3224 7.59427C2.42622 7.69809 2.55486 7.75 2.70833 7.75ZM1.08333 6.125H1.51667C1.67014 5.9625 1.84618 5.8316 2.04479 5.73229C2.2434 5.63299 2.46458 5.58333 2.70833 5.58333C2.95208 5.58333 3.17326 5.63299 3.37188 5.73229C3.57049 5.8316 3.74653 5.9625 3.9 6.125H7.58333V1.25H1.08333V6.125ZM9.20833 7.75C9.36181 7.75 9.49045 7.69809 9.59427 7.59427C9.69809 7.49045 9.75 7.3618 9.75 7.20833C9.75 7.05486 9.69809 6.92622 9.59427 6.8224C9.49045 6.71858 9.36181 6.66667 9.20833 6.66667C9.05486 6.66667 8.92622 6.71858 8.8224 6.8224C8.71858 6.92622 8.66667 7.05486 8.66667 7.20833C8.66667 7.3618 8.71858 7.49045 8.8224 7.59427C8.92622 7.69809 9.05486 7.75 9.20833 7.75ZM8.66667 5.04167H10.9688L9.75 3.41667H8.66667V5.04167Z" fill="#1C1B1F"/>
</svg>
