<svg width="13" height="13" viewBox="0 0 13 13" fill="none" xmlns="http://www.w3.org/2000/svg">
<mask id="mask0_210_19999" style="mask-type:alpha" maskUnits="userSpaceOnUse" x="0" y="0" width="13" height="13">
<rect width="13" height="13" fill="#D9D9D9"/>
</mask>
<g mask="url(#mask0_210_19999)">
<path d="M3.7915 11.375L3.03317 10.6167L3.8863 9.72292C2.92935 9.61458 2.13265 9.20156 1.49619 8.48386C0.859733 7.76615 0.541504 6.92431 0.541504 5.95833C0.541504 4.90208 0.909386 4.00608 1.64515 3.27031C2.38091 2.53455 3.27692 2.16667 4.33317 2.16667H5.95817V3.25H4.33317C3.58387 3.25 2.94515 3.51406 2.41702 4.04219C1.8889 4.57031 1.62484 5.20903 1.62484 5.95833C1.62484 6.60833 1.83248 7.1816 2.24775 7.67813C2.66303 8.17465 3.19116 8.48611 3.83213 8.6125L3.03317 7.81354L3.7915 7.04167L5.95817 9.20833L3.7915 11.375ZM7.0415 10.8333V7.04167H11.9165V10.8333H7.0415ZM7.0415 5.95833V2.16667H11.9165V5.95833H7.0415ZM8.12484 4.875H10.8332V3.25H8.12484V4.875Z" fill="#1C1B1F"/>
</g>
</svg>
