<svg width="14" height="14" viewBox="0 0 14 14" fill="none" xmlns="http://www.w3.org/2000/svg">
<path d="M11.875 5.78125H8.21875V2.125C8.21875 1.67635 7.8549 1.3125 7.40625 1.3125H6.59375C6.1451 1.3125 5.78125 1.67635 5.78125 2.125V5.78125H2.125C1.67635 5.78125 1.3125 6.1451 1.3125 6.59375V7.40625C1.3125 7.8549 1.67635 8.21875 2.125 8.21875H5.78125V11.875C5.78125 12.3237 6.1451 12.6875 6.59375 12.6875H7.40625C7.8549 12.6875 8.21875 12.3237 8.21875 11.875V8.21875H11.875C12.3237 8.21875 12.6875 7.8549 12.6875 7.40625V6.59375C12.6875 6.1451 12.3237 5.78125 11.875 5.78125Z" fill="black"/>
</svg>
