<svg width="16" height="15" viewBox="0 0 16 15" fill="none" xmlns="http://www.w3.org/2000/svg">
<path d="M5.00684 15C4.59434 15 4.24121 14.8531 3.94746 14.5594C3.65371 14.2656 3.50684 13.9125 3.50684 13.5C3.50684 13.0875 3.65371 12.7344 3.94746 12.4406C4.24121 12.1469 4.59434 12 5.00684 12C5.41934 12 5.77246 12.1469 6.06621 12.4406C6.35996 12.7344 6.50684 13.0875 6.50684 13.5C6.50684 13.9125 6.35996 14.2656 6.06621 14.5594C5.77246 14.8531 5.41934 15 5.00684 15ZM12.5068 15C12.0943 15 11.7412 14.8531 11.4475 14.5594C11.1537 14.2656 11.0068 13.9125 11.0068 13.5C11.0068 13.0875 11.1537 12.7344 11.4475 12.4406C11.7412 12.1469 12.0943 12 12.5068 12C12.9193 12 13.2725 12.1469 13.5662 12.4406C13.86 12.7344 14.0068 13.0875 14.0068 13.5C14.0068 13.9125 13.86 14.2656 13.5662 14.5594C13.2725 14.8531 12.9193 15 12.5068 15ZM4.36934 3L6.16934 6.75H11.4193L13.4818 3H4.36934ZM3.65684 1.5H14.7193C15.0068 1.5 15.2256 1.62813 15.3756 1.88438C15.5256 2.14062 15.5318 2.4 15.3943 2.6625L12.7318 7.4625C12.5943 7.7125 12.41 7.90625 12.1787 8.04375C11.9475 8.18125 11.6943 8.25 11.4193 8.25H5.83184L5.00684 9.75H14.0068V11.25H5.00684C4.44434 11.25 4.01934 11.0031 3.73184 10.5094C3.44434 10.0156 3.43184 9.525 3.69434 9.0375L4.70684 7.2L2.00684 1.5H0.506836V0H2.94434L3.65684 1.5Z" fill="black"/>
</svg>
