<svg width="11" height="10" viewBox="0 0 11 10" fill="none" xmlns="http://www.w3.org/2000/svg">
<path d="M10.3171 4.36042V8.66667C10.3171 8.96458 10.211 9.21962 9.99886 9.43177C9.78671 9.64392 9.53168 9.75 9.23376 9.75H1.65043C1.35251 9.75 1.09747 9.64392 0.885321 9.43177C0.673168 9.21962 0.567092 8.96458 0.567092 8.66667V4.36042C0.359453 4.17083 0.19921 3.92708 0.0863627 3.62917C-0.0264846 3.33125 -0.0287415 3.00625 0.0795918 2.65417L0.648342 0.8125C0.720564 0.577778 0.84921 0.383681 1.03428 0.230208C1.21935 0.0767361 1.43376 0 1.67751 0H9.20668C9.45043 0 9.66258 0.0744792 9.84313 0.223438C10.0237 0.372396 10.1546 0.56875 10.2358 0.8125L10.8046 2.65417C10.9129 3.00625 10.9107 3.32674 10.7978 3.61563C10.685 3.90451 10.5247 4.15278 10.3171 4.36042ZM6.63376 3.79167C6.87751 3.79167 7.06258 3.70816 7.18897 3.54115C7.31536 3.37413 7.36501 3.18681 7.33793 2.97917L7.04001 1.08333H5.98376V3.0875C5.98376 3.27708 6.04695 3.44184 6.17334 3.58177C6.29973 3.7217 6.4532 3.79167 6.63376 3.79167ZM4.19626 3.79167C4.4039 3.79167 4.57317 3.7217 4.70407 3.58177C4.83497 3.44184 4.90043 3.27708 4.90043 3.0875V1.08333H3.84418L3.54626 2.97917C3.51015 3.19583 3.55754 3.38542 3.68845 3.54792C3.81935 3.71042 3.98862 3.79167 4.19626 3.79167ZM1.78584 3.79167C1.94834 3.79167 2.09053 3.73299 2.2124 3.61563C2.33428 3.49826 2.40876 3.34931 2.43584 3.16875L2.73376 1.08333H1.67751L1.13584 2.89792C1.08168 3.07847 1.11102 3.27257 1.22386 3.48021C1.33671 3.68785 1.52404 3.79167 1.78584 3.79167ZM9.09834 3.79167C9.36015 3.79167 9.54973 3.68785 9.66709 3.48021C9.78445 3.27257 9.81154 3.07847 9.74834 2.89792L9.17959 1.08333H8.15043L8.44834 3.16875C8.47543 3.34931 8.5499 3.49826 8.67178 3.61563C8.79366 3.73299 8.93584 3.79167 9.09834 3.79167ZM1.65043 8.66667H9.23376V4.84792C9.18862 4.86597 9.15928 4.875 9.14574 4.875H9.09834C8.85459 4.875 8.64018 4.83438 8.45511 4.75313C8.27004 4.67188 8.08723 4.54097 7.90668 4.36042C7.74418 4.52292 7.55911 4.64931 7.35147 4.73958C7.14383 4.82986 6.92265 4.875 6.68793 4.875C6.44418 4.875 6.21622 4.82986 6.00407 4.73958C5.79192 4.64931 5.60459 4.52292 5.44209 4.36042C5.28862 4.52292 5.11032 4.64931 4.9072 4.73958C4.70407 4.82986 4.48515 4.875 4.25043 4.875C3.98862 4.875 3.75164 4.82986 3.53949 4.73958C3.32734 4.64931 3.14001 4.52292 2.97751 4.36042C2.78793 4.55 2.6006 4.68316 2.41553 4.7599C2.23046 4.83663 2.02056 4.875 1.78584 4.875H1.7249C1.70233 4.875 1.67751 4.86597 1.65043 4.84792V8.66667Z" fill="#1C1B1F"/>
</svg>
