<svg width="215" height="200" viewBox="0 0 215 200" fill="none" xmlns="http://www.w3.org/2000/svg">
<path d="M163.581 200H51.3926V70L122.785 0L135.534 12.5C136.724 13.6667 137.701 15.25 138.466 17.25C139.231 19.25 139.613 21.1667 139.613 23V26.5L128.395 70H194.178C199.617 70 204.377 72 208.456 76C212.536 80 214.576 84.6667 214.576 90V110C214.576 111.167 214.406 112.417 214.066 113.75C213.726 115.083 213.386 116.333 213.046 117.5L182.449 188C180.919 191.333 178.369 194.167 174.8 196.5C171.23 198.833 167.49 200 163.581 200ZM71.7905 180H163.581L194.178 110V90H102.387L116.156 35L71.7905 78.5V180ZM51.3926 70V90H20.7958V180H51.3926V200H0.397949V70H51.3926Z" fill="#1C1B1F"/>
</svg>
