<svg width="19" height="19" viewBox="0 0 19 19" fill="none" xmlns="http://www.w3.org/2000/svg">
<path d="M14.9286 5.9375V4.75C14.9286 2.13082 12.4933 0 9.5 0C6.50665 0 4.07143 2.13082 4.07143 4.75V5.9375H0V16.0312C0 17.6709 1.51902 19 3.39286 19H15.6071C17.481 19 19 17.6709 19 16.0312V5.9375H14.9286ZM6.78571 4.75C6.78571 3.44041 8.00333 2.375 9.5 2.375C10.9967 2.375 12.2143 3.44041 12.2143 4.75V5.9375H6.78571V4.75ZM13.5714 9.20312C13.0093 9.20312 12.5536 8.80439 12.5536 8.3125C12.5536 7.82062 13.0093 7.42188 13.5714 7.42188C14.1336 7.42188 14.5893 7.82062 14.5893 8.3125C14.5893 8.80439 14.1336 9.20312 13.5714 9.20312ZM5.42857 9.20312C4.86642 9.20312 4.41071 8.80439 4.41071 8.3125C4.41071 7.82062 4.86642 7.42188 5.42857 7.42188C5.99073 7.42188 6.44643 7.82062 6.44643 8.3125C6.44643 8.80439 5.99073 9.20312 5.42857 9.20312Z" fill="black"/>
</svg>
