<svg width="21" height="18" viewBox="0 0 21 18" fill="none" xmlns="http://www.w3.org/2000/svg">
<path d="M20.7144 15.4785L16.6248 11.9926C16.4403 11.8352 16.1901 11.7478 15.9275 11.7478H15.2589C16.391 10.5136 17.0637 8.96122 17.0637 7.27246C17.0637 3.25513 13.2449 0 8.53187 0C3.81883 0 0 3.25513 0 7.27246C0 11.2898 3.81883 14.5449 8.53187 14.5449C10.5131 14.5449 12.3343 13.9715 13.7823 13.0065V13.5764C13.7823 13.8002 13.8848 14.0135 14.0694 14.1708L18.1589 17.6567C18.5445 17.9854 19.168 17.9854 19.5495 17.6567L20.7103 16.6672C21.0959 16.3386 21.0959 15.8071 20.7144 15.4785ZM8.53187 11.7478C5.63186 11.7478 3.28149 9.7479 3.28149 7.27246C3.28149 4.80053 5.62776 2.7971 8.53187 2.7971C11.4319 2.7971 13.7823 4.79703 13.7823 7.27246C13.7823 9.7444 11.436 11.7478 8.53187 11.7478Z" fill="black" fill-opacity="0.9"/>
</svg>
