<svg width="19" height="20" viewBox="0 0 19 20" fill="none" xmlns="http://www.w3.org/2000/svg">
<path d="M9.5 0.5C4.25202 0.5 0 4.75202 0 10C0 15.248 4.25202 19.5 9.5 19.5C14.748 19.5 19 15.248 19 10C19 4.75202 14.748 0.5 9.5 0.5ZM9.5 4.17742C11.3617 4.17742 12.871 5.68669 12.871 7.54839C12.871 9.41008 11.3617 10.9194 9.5 10.9194C7.63831 10.9194 6.12903 9.41008 6.12903 7.54839C6.12903 5.68669 7.63831 4.17742 9.5 4.17742ZM9.5 17.3548C7.25141 17.3548 5.23649 16.3359 3.8881 14.7423C4.60827 13.3863 6.01794 12.4516 7.66129 12.4516C7.75323 12.4516 7.84516 12.4669 7.93327 12.4938C8.43125 12.6546 8.95222 12.7581 9.5 12.7581C10.0478 12.7581 10.5726 12.6546 11.0667 12.4938C11.1548 12.4669 11.2468 12.4516 11.3387 12.4516C12.9821 12.4516 14.3917 13.3863 15.1119 14.7423C13.7635 16.3359 11.7486 17.3548 9.5 17.3548Z" fill="black"/>
</svg>
