<svg width="30" height="20" viewBox="0 0 30 20" fill="none" xmlns="http://www.w3.org/2000/svg">
<path d="M14.8601 0.5C6.93312 0.5 0.510498 4.75202 0.510498 10C0.510498 15.248 6.93312 19.5 14.8601 19.5C22.7872 19.5 29.2098 15.248 29.2098 10C29.2098 4.75202 22.7872 0.5 14.8601 0.5ZM14.8601 4.17742C17.6722 4.17742 19.952 5.68669 19.952 7.54839C19.952 9.41008 17.6722 10.9194 14.8601 10.9194C12.0481 10.9194 9.76834 9.41008 9.76834 7.54839C9.76834 5.68669 12.0481 4.17742 14.8601 4.17742ZM14.8601 17.3548C11.4637 17.3548 8.42016 16.3359 6.38344 14.7423C7.47124 13.3863 9.60054 12.4516 12.0828 12.4516C12.2217 12.4516 12.3605 12.4669 12.4936 12.4938C13.2458 12.6546 14.0327 12.7581 14.8601 12.7581C15.6876 12.7581 16.4803 12.6546 17.2267 12.4938C17.3598 12.4669 17.4986 12.4516 17.6375 12.4516C20.1198 12.4516 22.2491 13.3863 23.3369 14.7423C21.3001 16.3359 18.2566 17.3548 14.8601 17.3548Z" fill="black"/>
</svg>
